<svg width="30" height="30" viewBox="0 0 30 30" fill="none" xmlns="http://www.w3.org/2000/svg">
<path d="M18.9956 24.994C18.9864 24.9174 18.9825 24.8401 18.984 24.7629C18.9714 24.7392 18.9634 24.7128 18.9607 24.6856V21.3673C18.9607 20.3221 18.6237 19.4298 17.9498 18.6922C19.7518 18.3489 21.0997 17.6164 21.9926 16.493C22.8855 15.3696 23.3327 14.01 23.3327 12.415C23.3327 10.9228 22.894 9.62782 22.0159 8.53079C22.3296 7.43289 22.2744 6.27552 21.8521 5.05782C21.4126 5.02381 20.9351 5.10541 20.418 5.30254C19.9009 5.49967 19.5174 5.68407 19.2658 5.85486C19.0158 6.02652 18.7883 6.1897 18.5849 6.34433C17.6757 6.06987 16.6609 5.93222 15.5413 5.93222C14.4201 5.93222 13.4139 6.06987 12.5202 6.34433C12.3479 6.2067 12.1476 6.05714 11.9209 5.89396C11.6933 5.73081 11.2982 5.53368 10.7337 5.30254C10.17 5.07055 9.6607 4.97197 9.20569 5.00683C8.76702 6.24153 8.72044 7.41589 9.06516 8.53077C8.20335 9.62867 7.77243 10.9228 7.77243 12.415C7.77243 14.01 8.21111 15.3654 9.08848 16.4794C9.96582 17.5943 11.3137 18.3319 13.1313 18.6922C12.666 19.181 12.3397 19.8066 12.1918 20.4937C10.8595 20.8532 9.92699 20.5957 9.39437 19.7204C8.40676 18.1433 7.52164 17.5773 6.73824 18.0235C6.628 18.1433 6.64429 18.2673 6.78483 18.3965C6.92614 18.5248 7.13731 18.6965 7.41993 18.9106C7.70175 19.1256 7.91297 19.361 8.05426 19.6184C8.0698 19.6525 8.11326 19.7773 8.18394 19.9915C8.25144 20.1983 8.32184 20.404 8.39513 20.6084C8.46501 20.8056 8.59854 21.0248 8.79497 21.2644C8.99063 21.5049 9.21813 21.7063 9.47668 21.8695C9.73524 22.0318 10.0916 22.1525 10.5458 22.2298C11 22.3062 11.5171 22.3105 12.0971 22.2425V24.8275C12.0971 24.853 12.0932 24.8955 12.0855 24.9567C12.0777 25.0161 18.9956 24.994 18.9956 24.994Z" fill="#F2F3F5"/>
</svg>
